<?xml version="1.0" encoding="UTF-8" standalone="no"?>
<svg width="14px" height="14px" viewBox="0 0 14 14" version="1.1" xmlns="http://www.w3.org/2000/svg" xmlns:xlink="http://www.w3.org/1999/xlink" xmlns:sketch="http://www.bohemiancoding.com/sketch/ns">
    <!-- Generator: Sketch 3.0.4 (8053) - http://www.bohemiancoding.com/sketch -->
    <title>Imported Layers</title>
    <desc>Created with Sketch.</desc>
    <defs></defs>
    <g id="Page-1" stroke="none" stroke-width="1" fill="none" fill-rule="evenodd" sketch:type="MSPage">
        <path d="M13.11296,11.52928 L9.89744,8.31264 C9.85992,8.27568 9.81848,8.24712 9.77928,8.21632 C10.32248,7.38248 10.64,6.3896 10.64,5.32 C10.64,2.38168 8.25944,0 5.32056,0 C2.38224,0 0,2.38168 0,5.32 C0,8.25888 2.38224,10.64 5.32056,10.64 C6.38904,10.64 7.38304,10.32192 8.21744,9.77872 C8.24824,9.81904 8.2768,9.85936 8.31264,9.89632 L11.52816,13.11296 C11.74824,13.33192 12.0344,13.44112 12.32,13.44112 C12.60672,13.44112 12.89344,13.33192 13.11296,13.11352 C13.5492,12.6756 13.5492,11.96664 13.11296,11.52928 L13.11296,11.52928 Z M5.32056,8.96 C3.31296,8.96 1.68,7.32704 1.68,5.32 C1.68,3.31352 3.31296,1.68 5.32056,1.68 C7.32648,1.68 8.96056,3.31352 8.96056,5.32 C8.96056,7.32704 7.32648,8.96 5.32056,8.96 L5.32056,8.96 Z" id="Imported-Layers" fill="#999999" sketch:type="MSShapeGroup"></path>
    </g>
</svg>